# xmcd
#
# Track frame offsets:
#	150
#	12721
#	34474
#	45821
#	60650
#	72305
#	92332
#	111573
#	126979
#	139628
#	150656
#	168696
#	183215
#	197361
#
# Disc length: 2783 seconds
#
# Revision: 0
# Processed by: cddbd v1.5.2PL0 Copyright (c) Steve Scherf et al.
# Submitted via: EasyCDDAExtractor 2010.4.0.0
#
DISCID=bf0add0e
DTITLE=Milionário and José Rico - Nossa História
DYEAR=2010
DGENRE=country
TTITLE0=De Longe Também se Ama
TTITLE1=Lembrança
TTITLE2=60 Dias Paixonado
TTITLE3=Cabecinha no Ombro
TTITLE4=Inversão de Valores - ao vivo
TTITLE5=Tempestade de Paixão - ao vivo
TTITLE6=Velho Candieiro
TTITLE7=Amor da Minha Vida
TTITLE8=Do Mundo Nada Se Leva
TTITLE9=Homem Apaixonado
TTITLE10=Explosão de Amor
TTITLE11=Meu Lamento
TTITLE12=Minha Culpa
TTITLE13=O Tropeiro (El Bandolero)
EXTD=
EXTT0=
EXTT1=
EXTT2=
EXTT3=
EXTT4=
EXTT5=
EXTT6=
EXTT7=
EXTT8=
EXTT9=
EXTT10=
EXTT11=
EXTT12=
EXTT13=
PLAYORDER=
